<?xml version="1.0" ?><svg height="1024" preserveAspectRatio="xMidYMid meet" width="1024" xmlns="http://www.w3.org/2000/svg"><g><title/><rect fill="none" height="1026" id="canvas_background" width="1026" x="-1" y="-1"/></g><g><title/><g fill="#000000" id="svg_1" transform="translate(0,1024) scale(0.10000000149011612,-0.10000000149011612) "><path d="m4820,9439c-1036,-77 -1981,-503 -2723,-1228c-976,-952 -1444,-2300 -1271,-3654c216,-1693 1410,-3103 3050,-3602c1268,-386 2679,-157 3754,608c1321,941 2008,2502 1804,4100c-216,1693 -1410,3103 -3050,3602c-488,149 -1057,212 -1564,174zm-1500,-1836c141,-4 183,-2 285,16c66,12 127,24 135,27c11,3 29,-19 60,-73c151,-270 309,-542 488,-843c180,-304 332,-553 833,-1367c68,-111 126,-202 129,-202c6,0 537,852 739,1183c174,287 366,616 581,996c94,168 173,306 174,307c1,1 33,-8 71,-20c62,-18 95,-21 295,-21c199,0 234,2 303,21c42,11 77,19 77,16c0,-2 -31,-48 -69,-101c-130,-183 -349,-539 -556,-907c-65,-115 -242,-419 -393,-675c-151,-256 -418,-712 -594,-1014l-318,-550l0,-65c0,-37 9,-578 21,-1203c13,-626 20,-1140 18,-1142c-3,-3 -22,0 -44,5c-22,6 -139,13 -260,16c-170,4 -241,1 -315,-11c-52,-8 -95,-14 -95,-13c-1,1 10,543 23,1205l24,1202l-528,922c-658,1152 -880,1523 -1284,2153c-56,88 -105,165 -107,172c-3,7 20,5 69,-9c53,-14 117,-21 238,-25z" fill="#720e9e" id="svg_2"/></g></g></svg>